<svg width="20" height="23" viewBox="0 0 20 23" fill="none" xmlns="http://www.w3.org/2000/svg">
<path d="M18.7366 4.45179L15.5491 1.2625C14.8527 0.568304 13.4821 0 12.5 0H1.78571C0.803571 0 0 0.803571 0 1.78571V21.0714C0 22.0536 0.803571 22.8571 1.78571 22.8571H18.2143C19.1964 22.8571 20 22.0536 20 21.0714V7.5C20 6.51786 19.433 5.14732 18.7366 4.45179Z" fill="black" fill-opacity="0.85"/>
<path d="M18.5714 21.0714C18.5714 21.2634 18.4063 21.4286 18.2143 21.4286H1.78573C1.59198 21.4286 1.42859 21.2634 1.42859 21.0714V1.7857C1.42859 1.59195 1.59198 1.42856 1.78573 1.42856H12.5C12.6072 1.42856 12.7277 1.44195 12.8572 1.4665V7.14508H18.5313C18.5581 7.27454 18.5714 7.39508 18.5714 7.50222V21.0736V21.0714Z" fill="white"/>
<path d="M17.0759 14.1429C16.9821 14.2009 16.7142 14.2366 16.5446 14.2366C15.991 14.2366 15.3125 13.9822 14.3526 13.5714C14.7232 13.5447 15.058 13.5313 15.3616 13.5313C15.9151 13.5313 16.0759 13.5313 16.6205 13.6697C17.1607 13.8036 17.1651 14.0848 17.0759 14.1429ZM7.47318 14.2277C7.68746 13.8527 7.90621 13.4554 8.12943 13.0313C8.67407 12 9.02228 11.1875 9.27675 10.5223C9.79014 11.4554 10.4285 12.2455 11.1741 12.8795C11.2678 12.9598 11.366 13.0357 11.4732 13.1161C9.95086 13.4197 8.63389 13.7857 7.47318 14.2277ZM9.24996 4.45536C9.55353 4.45536 9.72764 5.21697 9.74103 5.93572C9.75443 6.65001 9.58925 7.15001 9.37943 7.52501C9.20532 6.97144 9.12496 6.10536 9.12496 5.5384C9.12496 5.5384 9.11157 4.45536 9.24996 4.45536ZM3.29461 18.1697C3.46871 17.7009 4.14728 16.7723 5.15175 15.9464C5.21425 15.8973 5.3705 15.75 5.51336 15.6161C4.46425 17.2947 3.75889 17.9598 3.29461 18.1697ZM17.366 13.1563C17.0625 12.8572 16.3839 12.7009 15.3571 12.6875C14.6607 12.6786 13.8259 12.7411 12.9419 12.8616C12.5491 12.6339 12.1428 12.3884 11.8214 12.0893C10.9642 11.2857 10.25 10.1741 9.80353 8.9509C9.83032 8.83483 9.85711 8.73661 9.87943 8.63394C9.87943 8.63394 10.3616 5.8884 10.2321 4.95983C10.2142 4.83036 10.2053 4.79465 10.1696 4.69644L10.1294 4.58483C9.99996 4.28304 9.74103 3.96161 9.33478 3.97902L9.09818 3.97144H9.09371C8.64282 3.97144 8.27228 4.20224 8.17853 4.54465C7.88389 5.62947 8.18746 7.24554 8.73657 9.33929L8.59371 9.68304C8.20086 10.6384 7.70978 11.6027 7.27675 12.4509L7.21871 12.5625C6.76336 13.4554 6.34818 14.2143 5.97318 14.8572L5.58478 15.0625C5.558 15.0804 4.89282 15.4286 4.73657 15.5223C3.41514 16.3125 2.53657 17.2098 2.39103 17.9241C2.34461 18.1473 2.37943 18.4375 2.61469 18.5759L2.98969 18.7634C3.15175 18.8438 3.32586 18.8839 3.49996 18.8839C4.44193 18.8839 5.53568 17.7143 7.04014 15.0848C8.78121 14.5179 10.7634 14.0447 12.5 13.7857C13.8214 14.5313 15.4464 15.0491 16.4732 15.0491C16.6562 15.0491 16.8125 15.0313 16.9419 14.9955C17.1384 14.9464 17.3035 14.8348 17.4062 14.6786C17.6026 14.3795 17.6473 13.9688 17.5892 13.5447C17.5759 13.4197 17.4732 13.2634 17.366 13.1563Z" fill="black" fill-opacity="0.85"/>
<path d="M17.7277 5.45984C17.7992 5.53127 17.8661 5.61609 17.9331 5.7143H14.2858V2.06564C14.384 2.1335 14.4688 2.20314 14.5402 2.27279L17.7277 5.45984Z" fill="white"/>
</svg>
