<svg width="24" height="24" viewBox="0 0 24 24" fill="none" xmlns="http://www.w3.org/2000/svg">
<path d="M0 23.9996H10.9089V13.0904H0V23.9996ZM2.18162 15.2724H8.72708V21.801H2.18162V15.2724Z" fill="black" fill-opacity="0.85"/>
<path d="M6.54502 17.4545H4.36328V19.6366H6.54502V17.4545Z" fill="black" fill-opacity="0.85"/>
<path d="M19.6359 21.8182H17.4536V24H19.6359V21.8182Z" fill="black" fill-opacity="0.85"/>
<path d="M23.9996 21.8182H21.8174V24H23.9996V21.8182Z" fill="black" fill-opacity="0.85"/>
<path d="M21.8181 15.2724H19.6365V13.0904H13.0908V23.9996H15.2728V17.454H17.4542V19.6361H23.9999V13.0904H21.8181V15.2724Z" fill="black" fill-opacity="0.85"/>
<path d="M0 10.9093H10.9089V0H0V10.9093ZM2.18162 2.18164H8.72708V8.72718H2.18162V2.18164Z" fill="black" fill-opacity="0.85"/>
<path d="M6.54502 4.36365H4.36328V6.54559H6.54502V4.36365Z" fill="black" fill-opacity="0.85"/>
<path d="M13.0907 0V10.9093H23.9999V0H13.0907ZM21.818 8.72718H15.2727V2.18164H21.818V8.72718Z" fill="black" fill-opacity="0.85"/>
<path d="M19.6359 4.36365H17.4536V6.54559H19.6359V4.36365Z" fill="black" fill-opacity="0.85"/>
</svg>
